<?xml version="1.0" standalone="no"?><!DOCTYPE svg PUBLIC "-//W3C//DTD SVG 1.1//EN" "http://www.w3.org/Graphics/SVG/1.1/DTD/svg11.dtd"><svg t="1540974803038" class="icon" style="" viewBox="0 0 1024 1024" version="1.1" xmlns="http://www.w3.org/2000/svg" p-id="1289" xmlns:xlink="http://www.w3.org/1999/xlink" width="16" height="16"><defs><style type="text/css"></style></defs><path d="M928 448c-17.7 0-32 14.3-32 32v319.5c0 17.9-14.6 32.5-32.5 32.5h-703c-17.9 0-32.5-14.6-32.5-32.5V480c0-17.7-14.3-32-32-32s-32 14.3-32 32v319.5c0 53.2 43.3 96.5 96.5 96.5h703c53.2 0 96.5-43.3 96.5-96.5V480c0-17.7-14.3-32-32-32z" p-id="1290" fill="#c5c5c5"></path><path d="M489.4 73.4c0.4-0.4 0.8-0.7 1.2-1.1l0.4-0.4c0.2-0.2 0.5-0.4 0.7-0.6 0.2-0.2 0.4-0.3 0.6-0.4 0.2-0.2 0.5-0.4 0.7-0.5 0.2-0.1 0.4-0.3 0.6-0.4 0.2-0.2 0.5-0.3 0.7-0.5 0.2-0.1 0.4-0.2 0.6-0.4 0.3-0.2 0.5-0.3 0.8-0.5 0.2-0.1 0.3-0.2 0.5-0.3 0.3-0.2 0.6-0.3 0.9-0.5 0.1-0.1 0.3-0.1 0.4-0.2 0.3-0.2 0.7-0.3 1-0.5 0.1-0.1 0.2-0.1 0.3-0.2 0.4-0.2 0.7-0.3 1.1-0.5 0.1 0 0.2-0.1 0.2-0.1 0.4-0.2 0.8-0.3 1.2-0.5 0.1 0 0.1 0 0.2-0.1 0.4-0.2 0.9-0.3 1.3-0.4h0.1c0.5-0.1 0.9-0.3 1.4-0.4h0.1c0.5-0.1 0.9-0.2 1.4-0.3h0.2c0.4-0.1 0.9-0.2 1.3-0.2h0.4c0.4-0.1 0.8-0.1 1.2-0.1 0.3 0 0.5 0 0.8-0.1 0.3 0 0.5 0 0.8-0.1H512.2c0.7 0 1.3 0 1.9 0.1h0.6c0.6 0 1.2 0.1 1.8 0.2h0.3c0.7 0.1 1.4 0.2 2.1 0.4 0.1 0 0.2 0 0.3 0.1 0.7 0.2 1.3 0.3 2 0.5h0.1c0.7 0.2 1.4 0.5 2.1 0.7h0.1l2.1 0.9h0.1c0.7 0.3 1.4 0.7 2 1.1 0.1 0 0.1 0.1 0.2 0.1 1.6 0.9 3.2 2 4.6 3.2 0.2 0.2 0.4 0.4 0.6 0.5 0.2 0.2 0.4 0.3 0.6 0.5 0.2 0.2 0.5 0.4 0.7 0.7l0.4 0.4c0.1 0.1 0.2 0.1 0.2 0.2l191.7 191.7c12.5 12.5 12.5 32.8 0 45.3s-32.8 12.5-45.3 0L544 173.3V704c0 17.7-14.3 32-32 32s-32-14.3-32-32V173.3L342.6 310.6c-12.5 12.5-32.8 12.5-45.3 0s-12.5-32.8 0-45.3L489.4 73.4z" p-id="1291" fill="#c5c5c5"></path></svg>