<?xml version="1.0" standalone="no"?><!DOCTYPE svg PUBLIC "-//W3C//DTD SVG 1.1//EN" "http://www.w3.org/Graphics/SVG/1.1/DTD/svg11.dtd">
<svg t="1565594367494" class="icon" viewBox="0 0 1024 1024" version="1.1" 
  xmlns="http://www.w3.org/2000/svg" 
  xmlns:xlink="http://www.w3.org/1999/xlink" width="28" height="28">
  <defs>
    <style type="text/css"></style>
  </defs>
  <path d="M338.193 960H182.486C122.014 960 73 909.856 73 848V176c0-61.856 49.014-112 109.486-112h407.306L777 261.12v213.776a238.025 238.025 0 0 0-64-22.416V347.424H562.164c-35.346 0-64-28.654-64-64V128H190.717C161.039 128 137 152.576 137 182.848v658.304C137 871.424 161.071 896 190.717 896h107.448c9.349 23.712 23.01 45.467 40.028 64z m54.758-384H225.384C211.176 572.928 201 559.552 201 544s10.176-28.928 24.352-32h278.551a240.946 240.946 0 0 0-24.175 26.023c-32.984 3.682-62.946 17.377-86.777 37.977z m-88.94 160h-94.225c-5.12-3.072-8.786-16.448-8.786-32s3.667-28.928 8.775-32h129.628a160.886 160.886 0 0 0-1.712 15.755A195.42 195.42 0 0 0 304.01 736zM713 288L549 128v133.856C549 276.295 560.998 288 575.798 288H713zM225.704 416c-14.528-1.696-25.28-15.456-24.576-31.36-1.408-16.352 9.568-30.912 24.576-32.64h202.592c15.04 1.728 25.984 16.288 24.576 32.64 0.736 15.904-10.048 29.664-24.576 31.36H225.704z m440.163 91c87.143 0 160.45 61.062 178.751 143.908C907.203 672.651 951 731.973 951 800.445 951 877.05 898.734 945.206 826.492 960H457c-62.84-14.503-110-75.453-110-142.686 0-42.732 19.256-81.925 51.116-108.355a96.741 96.741 0 0 1-0.49-9.705c0.014-59.592 48.332-107.893 107.933-107.906h0.226l0.226 0.003c1.852 0.026 3.702 0.1 5.547 0.22C544.833 539.707 602.305 507 665.868 507zM520.691 895h239.743v-0.034h32c52.244 0 94.566-42.307 94.566-94.521 0-45.46-32.466-84.195-76.708-92.644l-23.563-4.5-2.288-23.88C778.562 618.053 727.518 571 665.867 571c-46.975 0-88.855 27.47-108.439 69.692l-12.04 25.96-27.139-9.076a43.289 43.289 0 0 0-12.902-2.228c-24.167 0.128-43.715 19.744-43.72 43.913 0 4.05 0.812 8.453 2.521 13.603l8.183 24.65-22.44 13.079C425.885 764.584 411 789.59 411 817.314c0 42.884 34.78 77.652 77.69 77.652h32V895z" p-id="26959"></path>
</svg>
