<?xml version="1.0" standalone="no"?><!DOCTYPE svg PUBLIC "-//W3C//DTD SVG 1.1//EN" "http://www.w3.org/Graphics/SVG/1.1/DTD/svg11.dtd"><svg t="1532934338524" class="icon" style="" viewBox="0 0 1024 1024" version="1.1" xmlns="http://www.w3.org/2000/svg" p-id="7753" xmlns:xlink="http://www.w3.org/1999/xlink" width="28" height="28"><defs><style type="text/css"></style></defs><path d="M238.592 320.512c0 11.264 9.216 20.48 20.48 20.48s20.48-9.216 20.48-20.48V174.08c0-43.008 30.72-73.216 70.656-73.216H629.76c1.536 0 3.584 1.024 5.632 2.56l318.464 315.392c1.024 1.024 4.608 4.608 5.632 5.12 2.048 2.048 2.56 3.072 2.56 0v445.44c0 42.496-38.4 77.824-81.408 77.824H350.208c-39.936 0-70.656-34.304-70.656-77.824v-141.312c0-11.264-9.216-20.48-20.48-20.48s-20.48 9.216-20.48 20.48v141.312c0 65.024 47.616 118.784 111.616 118.784H880.64c64.512 0 122.368-52.736 122.368-118.784v-445.44c0-11.776-5.12-19.456-14.848-29.184l-5.12-5.12-318.464-315.392c-9.216-9.216-21.504-14.848-34.304-14.848H350.208c-62.464 0-111.616 48.64-111.616 114.176v146.944z" p-id="7754" fill="#2c2c2c"></path><path d="M1001.984 440.32l-293.888 1.024c-45.568 0-82.944-36.352-82.944-81.408V72.192h-40.96v287.232c0 67.584 55.296 122.368 123.904 122.368 37.376 0 287.232-1.024 293.888-1.024V440.32zM587.776 539.136c-9.216 0-16.384 7.168-16.384 16.384s7.168 16.384 16.384 16.384H916.48c9.216 0 16.384-7.168 16.384-16.384s-7.168-16.384-16.384-16.384h-328.704zM587.776 702.976c-9.216 0-16.384 7.168-16.384 16.384 0 9.216 7.168 16.384 16.384 16.384H916.48c9.216 0 16.384-7.168 16.384-16.384 0-9.216-7.168-16.384-16.384-16.384h-328.704zM550.912 389.632L443.904 283.136c-8.192-7.68-20.48-7.68-28.672 0-8.192 7.68-8.192 20.48 0 28.672l76.8 76.8H50.688c-9.728 0-17.92 8.192-17.92 17.92s8.192 17.92 17.92 17.92h441.344l-76.8 76.8c-8.192 7.68-8.192 20.48 0 28.672 8.192 7.68 20.48 7.68 28.672 0l107.008-106.496c3.072-3.072 4.608-6.144 5.12-9.728 1.024-2.048 1.536-4.608 1.536-6.656s-0.512-5.12-1.536-7.168c-1.024-4.096-2.048-7.168-5.12-10.24zM39.936 635.392l107.008-106.496c8.192-7.68 20.48-7.68 28.672 0 8.192 7.68 8.192 20.48 0 28.672l-76.8 76.8h441.344c9.728 0 17.92 8.192 17.92 17.92s-8.192 17.92-17.92 17.92H98.304l76.8 76.8c8.192 7.68 8.192 20.48 0 28.672-8.192 7.68-20.48 7.68-28.672 0L39.936 668.672c-3.072-3.072-4.608-6.144-5.12-9.728-1.024-2.048-1.536-4.608-1.536-6.656s0.512-5.12 1.536-7.168c0.512-3.584 2.048-6.656 5.12-9.728z" p-id="7755" fill="#2c2c2c"></path></svg>